<svg width="43" height="44" viewBox="0 0 43 44" fill="none" xmlns="http://www.w3.org/2000/svg">
<path d="M0 35V9.79999H9.828C12.036 9.79999 13.92 10.148 15.48 10.844C17.04 11.54 18.24 12.548 19.08 13.868C19.92 15.188 20.34 16.76 20.34 18.584C20.34 20.408 19.92 21.98 19.08 23.3C18.24 24.596 17.04 25.592 15.48 26.288C13.92 26.984 13.7406 27 11.5326 27L9.72 24.272L3.6 26.036V35H0ZM16.848 35L9.72 24.272L14.292 25.856L20.772 35H16.848ZM3.6 26.036L9.72 24.272C12.024 24.272 13.764 23.78 14.94 22.796C16.14 21.788 16.74 20.384 16.74 18.584C16.74 16.784 16.14 15.392 14.94 14.408C13.764 13.424 12.024 12.932 9.72 12.932H1.98L3.6 11.132V26.036Z" fill="black"/>
<path d="M30.268 35.288C28.348 35.288 26.572 34.976 24.94 34.352C23.332 33.704 21.928 32.804 20.728 31.652C19.552 30.476 18.628 29.108 17.956 27.548C17.284 25.988 16.948 24.272 16.948 22.4C16.948 20.528 17.284 18.812 17.956 17.252C18.628 15.692 19.564 14.336 20.764 13.184C21.964 12.008 23.368 11.108 24.976 10.484C26.608 9.836 28.384 9.512 30.304 9.512C32.248 9.512 34.036 9.848 35.668 10.52C37.324 11.168 38.728 12.14 39.88 13.436L37.54 15.704C36.58 14.696 35.5 13.952 34.3 13.472C33.1 12.968 31.816 12.716 30.448 12.716C29.032 12.716 27.712 12.956 26.488 13.436C25.288 13.916 24.244 14.588 23.356 15.452C22.468 16.316 21.772 17.348 21.268 18.548C20.788 19.724 20.548 21.008 20.548 22.4C20.548 23.792 20.788 25.088 21.268 26.288C21.772 27.464 22.468 28.484 23.356 29.348C24.244 30.212 25.288 30.884 26.488 31.364C27.712 31.844 29.032 32.084 30.448 32.084C31.816 32.084 33.1 31.844 34.3 31.364C35.5 30.86 36.58 30.092 37.54 29.06L39.88 31.328C38.728 32.624 37.324 33.608 35.668 34.28C34.036 34.952 32.236 35.288 30.268 35.288Z" fill="black"/>
</svg>
