<svg width="81" height="53" viewBox="0 0 81 53" fill="none" xmlns="http://www.w3.org/2000/svg">
<path d="M19 35V9.79999H28.828C31.036 9.79999 32.92 10.148 34.48 10.844C36.04 11.54 37.24 12.548 38.08 13.868C38.92 15.188 39.34 16.76 39.34 18.584C39.34 20.408 38.92 21.98 38.08 23.3C37.24 24.596 36.04 25.592 34.48 26.288C32.92 26.984 32.7406 27 30.5326 27L28.72 24.272L22.6 26.036V35H19ZM35.848 35L28.72 24.272L33.292 25.856L39.772 35H35.848ZM22.6 26.036L28.72 24.272C31.024 24.272 32.764 23.78 33.94 22.796C35.14 21.788 35.74 20.384 35.74 18.584C35.74 16.784 35.14 15.392 33.94 14.408C32.764 13.424 31.024 12.932 28.72 12.932H20.98L22.6 11.132V26.036Z" fill="black"/>
<path d="M49.268 35.288C47.348 35.288 45.572 34.976 43.94 34.352C42.332 33.704 40.928 32.804 39.728 31.652C38.552 30.476 37.628 29.108 36.956 27.548C36.284 25.988 35.948 24.272 35.948 22.4C35.948 20.528 36.284 18.812 36.956 17.252C37.628 15.692 38.564 14.336 39.764 13.184C40.964 12.008 42.368 11.108 43.976 10.484C45.608 9.836 47.384 9.512 49.304 9.512C51.248 9.512 53.036 9.848 54.668 10.52C56.324 11.168 57.728 12.14 58.88 13.436L56.54 15.704C55.58 14.696 54.5 13.952 53.3 13.472C52.1 12.968 50.816 12.716 49.448 12.716C48.032 12.716 46.712 12.956 45.488 13.436C44.288 13.916 43.244 14.588 42.356 15.452C41.468 16.316 40.772 17.348 40.268 18.548C39.788 19.724 39.548 21.008 39.548 22.4C39.548 23.792 39.788 25.088 40.268 26.288C40.772 27.464 41.468 28.484 42.356 29.348C43.244 30.212 44.288 30.884 45.488 31.364C46.712 31.844 48.032 32.084 49.448 32.084C50.816 32.084 52.1 31.844 53.3 31.364C54.5 30.86 55.58 30.092 56.54 29.06L58.88 31.328C57.728 32.624 56.324 33.608 54.668 34.28C53.036 34.952 51.236 35.288 49.268 35.288Z" fill="black"/>
<path d="M1.22 51V44H3.73C4.31667 44 4.82 44.0933 5.24 44.28C5.66 44.4667 5.98333 44.7367 6.21 45.09C6.43667 45.4367 6.55 45.86 6.55 46.36C6.55 46.8467 6.43667 47.2667 6.21 47.62C5.98333 47.9667 5.66 48.2367 5.24 48.43C4.82 48.6167 4.31667 48.71 3.73 48.71H1.5L1.73 48.47V51H1.22ZM6.08 51L4.26 48.46H4.84L6.66 51H6.08ZM1.73 48.5L1.5 48.26H3.73C4.48333 48.26 5.05333 48.0933 5.44 47.76C5.83333 47.4267 6.03 46.96 6.03 46.36C6.03 45.7533 5.83333 45.2867 5.44 44.96C5.05333 44.6267 4.48333 44.46 3.73 44.46H1.5L1.73 44.21V48.5ZM10.3773 51.04C9.8506 51.04 9.38393 50.9267 8.97727 50.7C8.57727 50.4733 8.2606 50.16 8.02727 49.76C7.8006 49.36 7.68727 48.9033 7.68727 48.39C7.68727 47.87 7.79393 47.4133 8.00727 47.02C8.22727 46.62 8.52727 46.3067 8.90727 46.08C9.28727 45.8533 9.71393 45.74 10.1873 45.74C10.6606 45.74 11.0839 45.85 11.4573 46.07C11.8373 46.29 12.1339 46.6 12.3473 47C12.5673 47.3933 12.6773 47.85 12.6773 48.37C12.6773 48.39 12.6739 48.4133 12.6673 48.44C12.6673 48.46 12.6673 48.4833 12.6673 48.51H8.05727V48.12H12.3973L12.1973 48.31C12.2039 47.9033 12.1173 47.54 11.9373 47.22C11.7639 46.8933 11.5273 46.64 11.2273 46.46C10.9273 46.2733 10.5806 46.18 10.1873 46.18C9.8006 46.18 9.45393 46.2733 9.14727 46.46C8.84727 46.64 8.6106 46.8933 8.43727 47.22C8.26393 47.54 8.17727 47.9067 8.17727 48.32V48.41C8.17727 48.8367 8.2706 49.2167 8.45727 49.55C8.6506 49.8767 8.91393 50.1333 9.24727 50.32C9.5806 50.5 9.9606 50.59 10.3873 50.59C10.7206 50.59 11.0306 50.53 11.3173 50.41C11.6106 50.29 11.8573 50.1067 12.0573 49.86L12.3473 50.19C12.1206 50.47 11.8339 50.6833 11.4873 50.83C11.1473 50.97 10.7773 51.04 10.3773 51.04ZM17.3676 51V49.81L17.3476 49.63V47.67C17.3476 47.1833 17.2142 46.8133 16.9476 46.56C16.6876 46.3067 16.3042 46.18 15.7976 46.18C15.4376 46.18 15.1009 46.2433 14.7876 46.37C14.4809 46.49 14.2176 46.6467 13.9976 46.84L13.7476 46.48C14.0076 46.2467 14.3209 46.0667 14.6876 45.94C15.0542 45.8067 15.4376 45.74 15.8376 45.74C16.4842 45.74 16.9809 45.9033 17.3276 46.23C17.6742 46.5567 17.8476 47.0433 17.8476 47.69V51H17.3676ZM15.4876 51.04C15.1009 51.04 14.7642 50.98 14.4776 50.86C14.1976 50.7333 13.9809 50.5567 13.8276 50.33C13.6809 50.1033 13.6076 49.8433 13.6076 49.55C13.6076 49.2833 13.6676 49.0433 13.7876 48.83C13.9142 48.61 14.1209 48.4333 14.4076 48.3C14.6942 48.16 15.0776 48.09 15.5576 48.09H17.4776V48.48H15.5676C15.0276 48.48 14.6476 48.58 14.4276 48.78C14.2142 48.98 14.1076 49.23 14.1076 49.53C14.1076 49.8633 14.2342 50.13 14.4876 50.33C14.7409 50.53 15.0976 50.63 15.5576 50.63C15.9976 50.63 16.3676 50.53 16.6676 50.33C16.9742 50.13 17.2009 49.84 17.3476 49.46L17.4876 49.8C17.3476 50.18 17.1076 50.4833 16.7676 50.71C16.4342 50.93 16.0076 51.04 15.4876 51.04ZM21.9777 51.04C21.471 51.04 21.0177 50.9267 20.6177 50.7C20.2243 50.4733 19.911 50.16 19.6777 49.76C19.451 49.36 19.3377 48.9033 19.3377 48.39C19.3377 47.87 19.451 47.41 19.6777 47.01C19.911 46.61 20.2243 46.3 20.6177 46.08C21.0177 45.8533 21.471 45.74 21.9777 45.74C22.3977 45.74 22.7777 45.82 23.1177 45.98C23.4643 46.14 23.7443 46.38 23.9577 46.7L23.5877 46.97C23.401 46.7033 23.1677 46.5067 22.8877 46.38C22.6077 46.2533 22.3043 46.19 21.9777 46.19C21.571 46.19 21.2043 46.2833 20.8777 46.47C20.5577 46.65 20.3043 46.9067 20.1177 47.24C19.9377 47.5667 19.8477 47.95 19.8477 48.39C19.8477 48.83 19.9377 49.2167 20.1177 49.55C20.3043 49.8767 20.5577 50.1333 20.8777 50.32C21.2043 50.5 21.571 50.59 21.9777 50.59C22.3043 50.59 22.6077 50.5267 22.8877 50.4C23.1677 50.2733 23.401 50.0767 23.5877 49.81L23.9577 50.08C23.7443 50.4 23.4643 50.64 23.1177 50.8C22.7777 50.96 22.3977 51.04 21.9777 51.04ZM27.0331 51.04C26.5731 51.04 26.2198 50.9133 25.9731 50.66C25.7331 50.4067 25.6131 50.06 25.6131 49.62V44.64H26.1131V49.57C26.1131 49.9033 26.1965 50.16 26.3631 50.34C26.5298 50.52 26.7698 50.61 27.0831 50.61C27.4098 50.61 27.6798 50.5133 27.8931 50.32L28.1031 50.67C27.9698 50.7967 27.8065 50.89 27.6131 50.95C27.4265 51.01 27.2331 51.04 27.0331 51.04ZM24.6531 46.21V45.78H27.7731V46.21H24.6531ZM35.1859 51.05C34.6659 51.05 34.1825 50.9633 33.7359 50.79C33.2959 50.61 32.9125 50.36 32.5859 50.04C32.2592 49.72 32.0059 49.3467 31.8259 48.92C31.6459 48.4867 31.5559 48.0133 31.5559 47.5C31.5559 46.9867 31.6459 46.5167 31.8259 46.09C32.0059 45.6567 32.2592 45.28 32.5859 44.96C32.9192 44.64 33.3059 44.3933 33.7459 44.22C34.1859 44.04 34.6659 43.95 35.1859 43.95C35.6792 43.95 36.1392 44.03 36.5659 44.19C36.9992 44.35 37.3692 44.5933 37.6759 44.92L37.3559 45.25C37.0559 44.9567 36.7225 44.7467 36.3559 44.62C35.9959 44.4867 35.6125 44.42 35.2059 44.42C34.7592 44.42 34.3425 44.4967 33.9559 44.65C33.5759 44.8033 33.2425 45.02 32.9559 45.3C32.6759 45.58 32.4559 45.9067 32.2959 46.28C32.1425 46.6533 32.0659 47.06 32.0659 47.5C32.0659 47.94 32.1425 48.3467 32.2959 48.72C32.4559 49.0933 32.6759 49.42 32.9559 49.7C33.2425 49.98 33.5759 50.1967 33.9559 50.35C34.3425 50.5033 34.7592 50.58 35.2059 50.58C35.6125 50.58 35.9959 50.5167 36.3559 50.39C36.7225 50.2567 37.0559 50.04 37.3559 49.74L37.6759 50.07C37.3692 50.3967 36.9992 50.6433 36.5659 50.81C36.1392 50.97 35.6792 51.05 35.1859 51.05ZM41.0199 51.04C40.5199 51.04 40.0733 50.9267 39.6799 50.7C39.2933 50.4733 38.9833 50.16 38.7499 49.76C38.5233 49.36 38.4099 48.9033 38.4099 48.39C38.4099 47.87 38.5233 47.4133 38.7499 47.02C38.9833 46.62 39.2933 46.3067 39.6799 46.08C40.0733 45.8533 40.5199 45.74 41.0199 45.74C41.5199 45.74 41.9666 45.8533 42.3599 46.08C42.7533 46.3067 43.0633 46.62 43.2899 47.02C43.5166 47.4133 43.6299 47.87 43.6299 48.39C43.6299 48.9033 43.5166 49.36 43.2899 49.76C43.0633 50.16 42.7533 50.4733 42.3599 50.7C41.9666 50.9267 41.5199 51.04 41.0199 51.04ZM41.0199 50.59C41.4199 50.59 41.7799 50.5 42.0999 50.32C42.4199 50.1333 42.6699 49.8733 42.8499 49.54C43.0299 49.2067 43.1199 48.8233 43.1199 48.39C43.1199 47.95 43.0299 47.5667 42.8499 47.24C42.6699 46.9067 42.4199 46.65 42.0999 46.47C41.7799 46.2833 41.4199 46.19 41.0199 46.19C40.6199 46.19 40.2599 46.2833 39.9399 46.47C39.6266 46.65 39.3766 46.9067 39.1899 47.24C39.0099 47.5667 38.9199 47.95 38.9199 48.39C38.9199 48.8233 39.0099 49.2067 39.1899 49.54C39.3766 49.8733 39.6266 50.1333 39.9399 50.32C40.2599 50.5 40.6199 50.59 41.0199 50.59ZM45.1811 51V43.58H45.6811V51H45.1811ZM47.7885 51V43.58H48.2885V51H47.7885ZM52.5159 51.04C51.9893 51.04 51.5226 50.9267 51.1159 50.7C50.7159 50.4733 50.3993 50.16 50.1659 49.76C49.9393 49.36 49.8259 48.9033 49.8259 48.39C49.8259 47.87 49.9326 47.4133 50.1459 47.02C50.3659 46.62 50.6659 46.3067 51.0459 46.08C51.4259 45.8533 51.8526 45.74 52.3259 45.74C52.7993 45.74 53.2226 45.85 53.5959 46.07C53.9759 46.29 54.2726 46.6 54.4859 47C54.7059 47.3933 54.8159 47.85 54.8159 48.37C54.8159 48.39 54.8126 48.4133 54.8059 48.44C54.8059 48.46 54.8059 48.4833 54.8059 48.51H50.1959V48.12H54.5359L54.3359 48.31C54.3426 47.9033 54.2559 47.54 54.0759 47.22C53.9026 46.8933 53.6659 46.64 53.3659 46.46C53.0659 46.2733 52.7193 46.18 52.3259 46.18C51.9393 46.18 51.5926 46.2733 51.2859 46.46C50.9859 46.64 50.7493 46.8933 50.5759 47.22C50.4026 47.54 50.3159 47.9067 50.3159 48.32V48.41C50.3159 48.8367 50.4093 49.2167 50.5959 49.55C50.7893 49.8767 51.0526 50.1333 51.3859 50.32C51.7193 50.5 52.0993 50.59 52.5259 50.59C52.8593 50.59 53.1693 50.53 53.4559 50.41C53.7493 50.29 53.9959 50.1067 54.1959 49.86L54.4859 50.19C54.2593 50.47 53.9726 50.6833 53.6259 50.83C53.2859 50.97 52.9159 51.04 52.5159 51.04ZM58.4327 51.04C57.9261 51.04 57.4727 50.9267 57.0727 50.7C56.6794 50.4733 56.3661 50.16 56.1327 49.76C55.9061 49.36 55.7927 48.9033 55.7927 48.39C55.7927 47.87 55.9061 47.41 56.1327 47.01C56.3661 46.61 56.6794 46.3 57.0727 46.08C57.4727 45.8533 57.9261 45.74 58.4327 45.74C58.8527 45.74 59.2327 45.82 59.5727 45.98C59.9194 46.14 60.1994 46.38 60.4127 46.7L60.0427 46.97C59.8561 46.7033 59.6227 46.5067 59.3427 46.38C59.0627 46.2533 58.7594 46.19 58.4327 46.19C58.0261 46.19 57.6594 46.2833 57.3327 46.47C57.0127 46.65 56.7594 46.9067 56.5727 47.24C56.3927 47.5667 56.3027 47.95 56.3027 48.39C56.3027 48.83 56.3927 49.2167 56.5727 49.55C56.7594 49.8767 57.0127 50.1333 57.3327 50.32C57.6594 50.5 58.0261 50.59 58.4327 50.59C58.7594 50.59 59.0627 50.5267 59.3427 50.4C59.6227 50.2733 59.8561 50.0767 60.0427 49.81L60.4127 50.08C60.1994 50.4 59.9194 50.64 59.5727 50.8C59.2327 50.96 58.8527 51.04 58.4327 51.04ZM63.4882 51.04C63.0282 51.04 62.6749 50.9133 62.4282 50.66C62.1882 50.4067 62.0682 50.06 62.0682 49.62V44.64H62.5682V49.57C62.5682 49.9033 62.6515 50.16 62.8182 50.34C62.9849 50.52 63.2249 50.61 63.5382 50.61C63.8649 50.61 64.1349 50.5133 64.3482 50.32L64.5582 50.67C64.4249 50.7967 64.2615 50.89 64.0682 50.95C63.8815 51.01 63.6882 51.04 63.4882 51.04ZM61.1082 46.21V45.78H64.2282V46.21H61.1082ZM65.9526 51V45.78H66.4526V51H65.9526ZM66.2026 44.51C66.0892 44.51 65.9926 44.47 65.9126 44.39C65.8326 44.31 65.7926 44.2167 65.7926 44.11C65.7926 43.9967 65.8326 43.9 65.9126 43.82C65.9926 43.74 66.0892 43.7 66.2026 43.7C66.3226 43.7 66.4192 43.74 66.4926 43.82C66.5726 43.8933 66.6126 43.9867 66.6126 44.1C66.6126 44.2133 66.5726 44.31 66.4926 44.39C66.4192 44.47 66.3226 44.51 66.2026 44.51ZM70.6 51.04C70.1 51.04 69.6533 50.9267 69.26 50.7C68.8733 50.4733 68.5633 50.16 68.33 49.76C68.1033 49.36 67.99 48.9033 67.99 48.39C67.99 47.87 68.1033 47.4133 68.33 47.02C68.5633 46.62 68.8733 46.3067 69.26 46.08C69.6533 45.8533 70.1 45.74 70.6 45.74C71.1 45.74 71.5467 45.8533 71.94 46.08C72.3333 46.3067 72.6433 46.62 72.87 47.02C73.0967 47.4133 73.21 47.87 73.21 48.39C73.21 48.9033 73.0967 49.36 72.87 49.76C72.6433 50.16 72.3333 50.4733 71.94 50.7C71.5467 50.9267 71.1 51.04 70.6 51.04ZM70.6 50.59C71 50.59 71.36 50.5 71.68 50.32C72 50.1333 72.25 49.8733 72.43 49.54C72.61 49.2067 72.7 48.8233 72.7 48.39C72.7 47.95 72.61 47.5667 72.43 47.24C72.25 46.9067 72 46.65 71.68 46.47C71.36 46.2833 71 46.19 70.6 46.19C70.2 46.19 69.84 46.2833 69.52 46.47C69.2067 46.65 68.9567 46.9067 68.77 47.24C68.59 47.5667 68.5 47.95 68.5 48.39C68.5 48.8233 68.59 49.2067 68.77 49.54C68.9567 49.8733 69.2067 50.1333 69.52 50.32C69.84 50.5 70.2 50.59 70.6 50.59ZM77.3112 45.74C77.7378 45.74 78.1078 45.8233 78.4212 45.99C78.7412 46.15 78.9878 46.3967 79.1612 46.73C79.3412 47.0567 79.4312 47.4633 79.4312 47.95V51H78.9312V47.99C78.9312 47.4033 78.7812 46.9567 78.4812 46.65C78.1878 46.3433 77.7745 46.19 77.2412 46.19C76.8345 46.19 76.4812 46.2733 76.1812 46.44C75.8812 46.6067 75.6512 46.84 75.4912 47.14C75.3378 47.44 75.2612 47.8 75.2612 48.22V51H74.7612V45.78H75.2412V47.23L75.1712 47.07C75.3312 46.6567 75.5945 46.3333 75.9612 46.1C76.3278 45.86 76.7778 45.74 77.3112 45.74Z" fill="black"/>
</svg>
